<?xml version="1.0" encoding="UTF-8"?>
<svg id="Layer_1" xmlns="http://www.w3.org/2000/svg" version="1.1" viewBox="0 0 1024 1024">
  <!-- Generator: Adobe Illustrator 29.0.0, SVG Export Plug-In . SVG Version: 2.1.0 Build 186)  -->
  <defs>
    <style>
      .st0 {
        fill: #fc0;
      }
    </style>
  </defs>
  <path class="st0" d="M448.3,128c-159,0-287.9,128.9-287.9,287.9s6.2,66.4,17,96.7C71.8,520.6-7.4,612.7.6,718.3c7.6,100.3,91.3,177.7,191.8,177.4h575.7c141.3,0,255.9-114.6,255.9-255.9s-114.6-255.9-255.9-255.9-22.5,1-33.5,2.4c-15.1-146.8-138.8-258.3-286.4-258.3M448.3,192c114.9-.4,211.3,86.5,222.7,200.8l6.7,65.5,65.3-8.5c9.9-1.3,17.9-1.9,25.2-1.9,105.8,0,191.9,86.1,191.9,191.9s-86.1,191.9-191.9,191.9H192.4c-70.6,0-127.9-57.4-127.9-127.9.3-66.6,51.5-121.9,117.9-127.4l83.5-6.5-28.2-78.8c-8.7-24.1-13.2-49.6-13.3-75.2,0-123.5,100.4-223.9,223.9-223.9"/>
</svg>