<?xml version="1.0" encoding="UTF-8"?>
<svg id="Layer_1" xmlns="http://www.w3.org/2000/svg" version="1.1" viewBox="0 0 1024 1024">
  <!-- Generator: Adobe Illustrator 29.0.0, SVG Export Plug-In . SVG Version: 2.1.0 Build 186)  -->
  <defs>
    <style>
      .st0 {
        fill: #fc0;
        stroke: #fff;
        stroke-miterlimit: 10;
        stroke-width: 1.3px;
      }
    </style>
  </defs>
  <path class="st0" d="M983.1,312.9c-25.8-60.8-62.6-115.6-109.6-162.5-47-47-101.7-83.8-162.5-109.6C647.9,14.2,580.9.6,511.9.6s-136,13.6-199,40.2c-60.8,25.8-115.6,62.6-162.5,109.6-47,47-83.8,101.7-109.6,162.5C14.2,376,.6,443,.6,511.9s13.6,136,40.2,199c25.8,60.8,62.6,115.6,109.6,162.5,47,47,101.7,83.8,162.5,109.6,63.1,26.6,130.1,40.2,199,40.2s136-13.6,199-40.2c60.8-25.8,115.6-62.6,162.5-109.6,47-47,83.8-101.7,109.6-162.5,26.6-63.1,40.2-130.1,40.2-199s-13.4-136-40.2-199ZM765.8,551.3l26.6,55-48.9,42.2,3.5,16.6c4,19.4,8.3,42.1,10.3,55.5-3.8,3.4-8.7,7.9-15.2,13.8-9.4,8.5-25.9,23.5-40,35.9-2.5-10.3-5.4-24.3-8.8-43.1-5.5-31.4-9.3-60.1-9.3-60.4l-.5-4.3-.9-1.9-24.1-89-61.7,11.1-34.7-29.3,28.4-46.1-5.9-61.3c11.1-10.8,22.2-21.2,26.5-24.5,14.8-7.9,17.3-25,18.6-33.4,1-6.8,1.9-15.8,2.5-26.9.6-9.2.9-18.1,1.1-24.9l47.9-50.9,180.7-62c53.8,65.2,89.7,145.5,100.4,233.6l-147.7,4.5-49,89.6ZM803.2,757.2c-.3.3-.6.4-.8.5.3-.1.5-.3.8-.5ZM161,225.4c1.6,4.3,3.4,8.9,5,13.2,11.2,30.2,21.7,58.7,43.2,70.1,12.6,6.7,57.8,24.9,92.2,38.5-10.4,11.2-22.6,24.5-34.8,38.6-55.2,63.7-67.5,91.7-65.3,112.2-4.9,4-16,9-28.1,13.2l-52.7-84.2-41.7-48.4c17.3-56.7,45.6-108.4,82.2-153.2h0ZM308,916.8l-3.4-85.6,25.3-98-29.3-68.2,6-14.7,49.5,18.1,90.2,64.3-66.6,46.4-50.5,147.7c-7.3-3.1-14.3-6.4-21.2-9.9h0ZM512.1,965.3c-44.7,0-87.8-6.5-128.7-18.6l44.9-130.9,118.4-82.4-163.4-116.5-108.8-39.7-36.7,88.3,31,72.5-22.5,87.1,2.3,55.8c-114.9-82.3-189.9-217-189.9-368.9s1.5-42.5,4.4-63.1l10.7,12.4,72.4,115.7,19.7-4.1c.6-.1,15.7-3.3,32.7-9.6,26.6-9.8,44.1-21.6,53.5-36.4,6.4-10.2,8.9-21.5,7.2-32.8,1.9-5.2,11.3-25.5,56.8-77.2,28.4-32.3,56.4-60.3,56.7-60.6l31.4-31.4-41.5-16c-40.7-15.7-108.9-42.7-124.8-50.6-5.2-6.2-13.2-28-17.6-40-5.4-14.5-10.4-28.3-16.5-38.7,80.9-75.3,189.4-121.4,308.5-121.4s225.3,45.1,306,119.1l-169.1,57.9-72.9,77.4-.3,11.2c-.4,18.7-1.6,42.6-3.1,54.3-7.5,6.2-19.2,17-38.6,36.3l-9.7,9.7,6.7,69.2-44.5,72,93.5,78.8,36.3-6.5,10.4,38.5c1,7.8,4.9,35.9,10.4,66.1,13.1,71.6,22.7,86.2,30.9,94.4s12.2,8.7,20.9,8.7,10.3-1.3,16-4.1c2.8-1.5,5.8-3.4,9.6-6.2,5-3.8,11.6-9,20.1-16.3,14.7-12.6,32.3-28.7,46.5-41.6,9.2-8.4,19.6-17.8,22.6-20.2,6.4-4.5,13.3-12.9,12.7-28.5-.1-3-.5-6.7-1.1-11.3-.9-6.7-2.4-15.7-4.4-26.8-1.3-7.2-2.6-14.2-3.9-20.2l56.8-49.1-32.9-68.1,18.8-34.4,115.9-3.4c-2,248.7-204.8,450.4-453.8,450.4h0Z"/>
</svg>