<?xml version="1.0" encoding="UTF-8"?>
<svg id="Capa_1" xmlns="http://www.w3.org/2000/svg" version="1.1" viewBox="0 0 800 800">
  <!-- Generator: Adobe Illustrator 29.0.0, SVG Export Plug-In . SVG Version: 2.1.0 Build 186)  -->
  <defs>
    <style>
      .st0 {
        fill: #fff;
      }
    </style>
  </defs>
  <path class="st0" d="M400,0C179.1,0,0,179.1,0,400s179.1,400,400,400,400-179.1,400-400S620.9,0,400,0ZM400,750c-193,0-350-157-350-350S207,50,400,50s350,157,350,350-157,350-350,350Z"/>
  <path class="st0" d="M162.6,569h475.4V222.7H162.6v346.2ZM516.5,379.3l71.4-44.7v135.5l-71.4-90.9ZM473.9,406l88.7,112.9H238.4l88.4-112.5,73.5,45.6,73.6-46ZM212.6,470.9v-135.4l71.5,44.4-71.5,91ZM587.9,272.7v3l-187.7,117.4-187.6-116.5v-3.9h375.4Z"/>
</svg>