<?xml version="1.0" encoding="UTF-8"?>
<svg id="Layer_1" xmlns="http://www.w3.org/2000/svg" version="1.1" viewBox="0 0 800 800">
  <!-- Generator: Adobe Illustrator 29.0.0, SVG Export Plug-In . SVG Version: 2.1.0 Build 186)  -->
  <defs>
    <style>
      .st0 {
        fill: #fc0;
      }

      .st1 {
        fill: none;
      }
    </style>
  </defs>
  <path class="st1" d="M0,0h800v800H0V0Z"/>
  <path class="st0" d="M585.1,800H215C96.5,800,0,518.5,0,400S96.5,0,215,0h369.9c118.6,0,215,281.4,215,400s-96.5,400-215,400h.1ZM215,60c-85.4,0-155,254.4-155,340s69.5,340,155,340h369.9c85.4,0,155-254.5,155-340S670.5,60,585,60H215Z"/>
  <path class="st0" d="M215,492.1c-16.6,0-30-13.4-30-30v-29.9h-30.4c-16.6,0-30-13.4-30-30s13.4-30,30-30h30.4v-32.3c0-16.6,13.4-30,30-30s30,13.4,30,30v32.3h31.8c16.6,0,30,13.4,30,30s-13.4,30-30,30h-31.8v29.9c0,16.6-13.4,30-30,30h0Z"/>
  <path class="st0" d="M490.1,525c-33.1,0-60-26.9-60-60s26.9-60,60-60,60,26.9,60,60-26.9,60-60,60ZM490.1,465h0Z"/>
  <path class="st0" d="M618.1,414.1c-33.1,0-60-26.9-60-60s26.9-60,60-60,60,26.9,60,60-26.9,60-60,60ZM618.1,354.1h0Z"/>
</svg>