<?xml version="1.0" encoding="UTF-8"?>
<svg id="Github-Fill--Streamline-Remix-Fill.svg" xmlns="http://www.w3.org/2000/svg" version="1.1" viewBox="0 0 16 16">
  <!-- Generator: Adobe Illustrator 29.0.0, SVG Export Plug-In . SVG Version: 2.1.0 Build 186)  -->
  <defs>
    <style>
      .st0 {
        fill: #fff;
      }
    </style>
  </defs>
  <path class="st0" d="M8,0C3.6,0,0,3.7,0,8.2s2.3,6.7,5.5,7.8c.4,0,.5-.2.5-.4s0-.8,0-1.5c-2,.4-2.5-.5-2.7-1,0-.2-.5-1-.8-1.2-.3-.2-.7-.5,0-.5.6,0,1.1.6,1.2.8.7,1.2,1.9.9,2.3.7,0-.5.3-.9.5-1.1-1.8-.2-3.6-.9-3.6-4s.3-1.6.8-2.2c0-.2-.4-1,0-2.2,0,0,.7-.2,2.2.8.6-.2,1.3-.3,2-.3s1.4,0,2,.3c1.5-1.1,2.2-.8,2.2-.8.4,1.1.2,2,0,2.2.5.6.8,1.3.8,2.2,0,3.1-1.9,3.8-3.6,4,.3.3.5.7.5,1.5,0,1.1,0,2,0,2.2s.1.5.5.4c3.3-1.1,5.4-4.2,5.4-7.8C16,3.7,12.4,0,8,0Z"/>
</svg>