<?xml version="1.0" encoding="UTF-8"?>
<svg id="Layer_1" xmlns="http://www.w3.org/2000/svg" version="1.1" viewBox="0 0 800 800">
  <!-- Generator: Adobe Illustrator 29.0.0, SVG Export Plug-In . SVG Version: 2.1.0 Build 186)  -->
  <defs>
    <style>
      .st0 {
        fill: #fc0;
      }

      .st1 {
        fill: none;
      }
    </style>
  </defs>
  <path class="st1" d="M400,79.9c-176.4,0-320.1,143.5-320.1,320.1s143.5,320.1,320.1,320.1,320.1-143.5,320.1-320.1S576.5,79.9,400,79.9h0ZM440,596.6v43.4h-80v-43.2c-93.6-14.6-120-80-120-116.8h80c.5,5.8,6.4,40,80,40s80-23.4,80-40,0-40-80-40c-139.2,0-160-75.2-160-120s41.2-103.3,120-116.7v-43h80v44.4c69.4,16.4,96,74.2,96,115.2h-40l-40,.7c-.6-15.2-8.6-40.7-56-40.7s-80,20.6-80,40,0,40,80,40c139.2,0,160,75.2,160,120s-41.2,103.3-120,116.7h-.1Z"/>
  <path class="st0" d="M400,0C179.4,0,0,179.4,0,400s179.4,400,400,400,400-179.4,400-400S620.6,0,400,0ZM400,720.1c-176.4,0-320.1-143.5-320.1-320.1S223.6,79.9,400,79.9s320.1,143.5,320.1,320.1-143.5,320.1-320.1,320.1Z"/>
  <path class="st0" d="M400,360c-80,0-80-25.1-80-40s28.1-40,80-40,55.4,25.6,56,40.7l40-.7h40c0-41-26.6-98.8-96-115.2v-44.4h-80v43c-78.8,13.2-120,65-120,116.7s20.8,120,160,120,80,27,80,40-24.8,40-80,40-79.6-34.3-80-40h-80c0,36.7,26.4,102.1,120,116.8v43.2h80v-43.4c78.8-13.2,120-65,120-116.7s-20.8-120-160-120h.1Z"/>
</svg>